<?xml version="1.0" encoding="UTF-8"?>
<!DOCTYPE svg PUBLIC "-//W3C//DTD SVG 1.1//EN" "http://www.w3.org/Graphics/SVG/1.1/DTD/svg11.dtd">
<!-- Creator: CorelDRAW 2020 (64-Bit) -->
<svg xmlns="http://www.w3.org/2000/svg" xml:space="preserve" width="170mm" height="30.759mm" version="1.1" style="shape-rendering:geometricPrecision; text-rendering:geometricPrecision; image-rendering:optimizeQuality; fill-rule:evenodd; clip-rule:evenodd"
viewBox="0 0 17000 3075.9"
 xmlns:xlink="http://www.w3.org/1999/xlink"
 xmlns:xodm="http://www.corel.com/coreldraw/odm/2003">
 <defs>
  <style type="text/css">
   <![CDATA[
    .str0 {stroke:#FEFEFE;stroke-width:7.62;stroke-miterlimit:22.9256}
    .fil2 {fill:none}
    .fil1 {fill:none;fill-rule:nonzero}
    .fil3 {fill:#FEFEFE}
    .fil0 {fill:#FEFEFE;fill-rule:nonzero}
   ]]>
  </style>
    <clipPath id="id0" style="clip-rule:nonzero">
     <path d="M4687.86 1989.7c0,252.85 -101.05,434.78 -461.28,428.62l0 -903.5c408.56,12.33 461.28,234.36 461.28,474.88zm-101.05 -1054.6c0,212.77 -61.5,339.2 -360.23,339.2l0 -616.72c17.56,0 43.93,0 61.5,0 224.05,0 294.34,83.26 298.73,277.52zm729.28 1023.76c0,-228.18 -149.37,-521.12 -540.37,-576.63 329.5,-64.76 404.18,-302.19 404.18,-465.62 0,-376.2 -246.02,-514.97 -1010.44,-499.55l-672.16 0c92.27,64.76 131.79,151.1 131.79,243.6l0 1754.57c0,74 -21.95,169.6 -131.79,240.52l641.4 0c680.96,18.5 1177.39,-77.09 1177.39,-696.89zm1098.3 696.89c-109.83,-83.25 -131.8,-172.68 -131.8,-240.52l0 -1754.57c0,-92.5 43.94,-175.76 131.8,-243.6l-878.63 0c92.25,67.84 136.18,151.1 136.18,243.6l0 1754.57c0,55.51 -26.36,160.35 -136.18,240.52l878.63 0zm1454.15 -2238.69c92.26,67.84 144.97,138.76 144.97,243.6l0 999.09 -162.54 -385.45 -426.13 -857.24 -790.79 0c87.86,52.42 144.97,138.76 144.97,243.6l0 1754.57c0,83.26 -21.95,157.27 -144.97,240.52l790.79 0c-101.05,-67.84 -149.38,-138.76 -149.38,-243.6l0 -1122.43c219.66,456.37 439.32,912.74 663.37,1366.03l606.27 0c-57.11,-111.01 -65.91,-246.68 -65.91,-370.03l0 -1625.06c0,-86.34 26.36,-157.26 149.37,-243.6l-760.02 0zm2174.62 255.94c153.77,18.5 391,74 575.52,333.02l0 -588.96 -1748.5 0 0 588.96c184.51,-259.02 421.75,-314.52 575.51,-333.02l0 1742.23c0,67.84 -21.96,157.27 -131.79,240.52l865.47 0c-118.63,-86.34 -136.21,-169.59 -136.21,-240.52l0 -1742.23zm1269.65 1094.68l210.86 -980.59 202.09 980.59 -412.95 0zm1375.06 888.07c-101.04,-52.42 -153.77,-148.01 -180.12,-243.6l-443.71 -1748.4c-17.58,-77.09 -4.4,-194.27 48.33,-246.69l-1006.06 0c61.51,64.76 65.91,169.6 48.34,246.69l-452.51 1766.9c-17.58,64.76 -74.69,172.68 -158.15,225.1l707.31 0c-79.08,-58.59 -114.23,-141.84 -92.26,-222.01l96.64 -413.21 522.8 0 92.27 394.7c21.95,86.34 0,188.1 -109.84,240.52l926.96 0zm1366.29 -2238.69c92.26,67.84 144.96,138.76 144.96,243.6l0 999.09 -162.54 -385.45 -426.13 -857.24 -790.79 0c87.86,52.42 144.97,138.76 144.97,243.6l0 1754.57c0,83.26 -21.95,157.27 -144.97,240.52l790.79 0c-101.05,-67.84 -149.39,-138.76 -149.39,-243.6l0 -1122.43c219.67,456.37 439.34,912.74 663.38,1366.03l606.27 0c-57.11,-111.01 -65.91,-246.68 -65.91,-370.03l0 -1625.06c0,-86.34 26.36,-157.26 149.37,-243.6l-760.01 0zm2077.97 931.25c96.64,61.67 144.97,135.67 144.97,206.6l0 505.71c0,299.1 -127.4,348.45 -285.55,345.36 -228.44,-6.16 -285.56,-400.87 -285.56,-851.07 0,-511.88 74.68,-869.58 395.4,-897.33 254.79,-21.58 417.35,74.01 615.04,490.29l0 -755.48c-232.84,80.18 -347.07,-12.34 -729.28,-12.34 -812.74,0 -909.39,678.4 -909.39,1190.27 13.18,558.14 144.98,1125.52 834.71,1125.52 505.22,0 518.4,-157.26 913.79,-15.42l0 -1122.43c0,-95.59 35.13,-157.26 123.01,-209.68l-817.14 0z"/>
    </clipPath>
    <clipPath id="id1">
     <path d="M4687.86 1989.7c0,252.85 -101.05,434.78 -461.28,428.62l0 -903.5c408.56,12.33 461.28,234.36 461.28,474.88zm-101.05 -1054.6c0,212.77 -61.5,339.2 -360.23,339.2l0 -616.72c17.56,0 43.93,0 61.5,0 224.05,0 294.34,83.26 298.73,277.52zm729.28 1023.76c0,-228.18 -149.37,-521.12 -540.37,-576.63 329.5,-64.76 404.18,-302.19 404.18,-465.62 0,-376.2 -246.02,-514.97 -1010.44,-499.55l-672.16 0c92.27,64.76 131.79,151.1 131.79,243.6l0 1754.57c0,74 -21.95,169.6 -131.79,240.52l641.4 0c680.96,18.5 1177.39,-77.09 1177.39,-696.89zm1098.3 696.89c-109.83,-83.25 -131.8,-172.68 -131.8,-240.52l0 -1754.57c0,-92.5 43.94,-175.76 131.8,-243.6l-878.63 0c92.25,67.84 136.18,151.1 136.18,243.6l0 1754.57c0,55.51 -26.36,160.35 -136.18,240.52l878.63 0zm1454.15 -2238.69c92.26,67.84 144.97,138.76 144.97,243.6l0 999.09 -162.54 -385.45 -426.13 -857.24 -790.79 0c87.86,52.42 144.97,138.76 144.97,243.6l0 1754.57c0,83.26 -21.95,157.27 -144.97,240.52l790.79 0c-101.05,-67.84 -149.38,-138.76 -149.38,-243.6l0 -1122.43c219.66,456.37 439.32,912.74 663.37,1366.03l606.27 0c-57.11,-111.01 -65.91,-246.68 -65.91,-370.03l0 -1625.06c0,-86.34 26.36,-157.26 149.37,-243.6l-760.02 0zm2174.62 255.94c153.77,18.5 391,74 575.52,333.02l0 -588.96 -1748.5 0 0 588.96c184.51,-259.02 421.75,-314.52 575.51,-333.02l0 1742.23c0,67.84 -21.96,157.27 -131.79,240.52l865.47 0c-118.63,-86.34 -136.21,-169.59 -136.21,-240.52l0 -1742.23zm1269.65 1094.68l210.86 -980.59 202.09 980.59 -412.95 0zm1375.06 888.07c-101.04,-52.42 -153.77,-148.01 -180.12,-243.6l-443.71 -1748.4c-17.58,-77.09 -4.4,-194.27 48.33,-246.69l-1006.06 0c61.51,64.76 65.91,169.6 48.34,246.69l-452.51 1766.9c-17.58,64.76 -74.69,172.68 -158.15,225.1l707.31 0c-79.08,-58.59 -114.23,-141.84 -92.26,-222.01l96.64 -413.21 522.8 0 92.27 394.7c21.95,86.34 0,188.1 -109.84,240.52l926.96 0zm1366.29 -2238.69c92.26,67.84 144.96,138.76 144.96,243.6l0 999.09 -162.54 -385.45 -426.13 -857.24 -790.79 0c87.86,52.42 144.97,138.76 144.97,243.6l0 1754.57c0,83.26 -21.95,157.27 -144.97,240.52l790.79 0c-101.05,-67.84 -149.39,-138.76 -149.39,-243.6l0 -1122.43c219.67,456.37 439.34,912.74 663.38,1366.03l606.27 0c-57.11,-111.01 -65.91,-246.68 -65.91,-370.03l0 -1625.06c0,-86.34 26.36,-157.26 149.37,-243.6l-760.01 0zm2077.97 931.25c96.64,61.67 144.97,135.67 144.97,206.6l0 505.71c0,299.1 -127.4,348.45 -285.55,345.36 -228.44,-6.16 -285.56,-400.87 -285.56,-851.07 0,-511.88 74.68,-869.58 395.4,-897.33 254.79,-21.58 417.35,74.01 615.04,490.29l0 -755.48c-232.84,80.18 -347.07,-12.34 -729.28,-12.34 -812.74,0 -909.39,678.4 -909.39,1190.27 13.18,558.14 144.98,1125.52 834.71,1125.52 505.22,0 518.4,-157.26 913.79,-15.42l0 -1122.43c0,-95.59 35.13,-157.26 123.01,-209.68l-817.14 0z"/>
    </clipPath>
 </defs>
 <g id="Layer_x0020_1">
  <metadata id="CorelCorpID_0Corel-Layer"/>
  <g id="_2877023816000">
   <path class="fil0" d="M4687.86 1989.7c0,252.85 -101.05,434.78 -461.28,428.62l0 -903.5c408.56,12.33 461.28,234.36 461.28,474.88zm-101.05 -1054.6c0,212.77 -61.5,339.2 -360.23,339.2l0 -616.72c17.56,0 43.93,0 61.5,0 224.05,0 294.34,83.26 298.73,277.52zm729.28 1023.76c0,-228.18 -149.37,-521.12 -540.37,-576.63 329.5,-64.76 404.18,-302.19 404.18,-465.62 0,-376.2 -246.02,-514.97 -1010.44,-499.55l-672.16 0c92.27,64.76 131.79,151.1 131.79,243.6l0 1754.57c0,74 -21.95,169.6 -131.79,240.52l641.4 0c680.96,18.5 1177.39,-77.09 1177.39,-696.89zm1098.3 696.89c-109.83,-83.25 -131.8,-172.68 -131.8,-240.52l0 -1754.57c0,-92.5 43.94,-175.76 131.8,-243.6l-878.63 0c92.25,67.84 136.18,151.1 136.18,243.6l0 1754.57c0,55.51 -26.36,160.35 -136.18,240.52l878.63 0zm1454.15 -2238.69c92.26,67.84 144.97,138.76 144.97,243.6l0 999.09 -162.54 -385.45 -426.13 -857.24 -790.79 0c87.86,52.42 144.97,138.76 144.97,243.6l0 1754.57c0,83.26 -21.95,157.27 -144.97,240.52l790.79 0c-101.05,-67.84 -149.38,-138.76 -149.38,-243.6l0 -1122.43c219.66,456.37 439.32,912.74 663.37,1366.03l606.27 0c-57.11,-111.01 -65.91,-246.68 -65.91,-370.03l0 -1625.06c0,-86.34 26.36,-157.26 149.37,-243.6l-760.02 0zm2174.62 255.94c153.77,18.5 391,74 575.52,333.02l0 -588.96 -1748.5 0 0 588.96c184.51,-259.02 421.75,-314.52 575.51,-333.02l0 1742.23c0,67.84 -21.96,157.27 -131.79,240.52l865.47 0c-118.63,-86.34 -136.21,-169.59 -136.21,-240.52l0 -1742.23zm1269.65 1094.68l210.86 -980.59 202.09 980.59 -412.95 0zm1375.06 888.07c-101.04,-52.42 -153.77,-148.01 -180.12,-243.6l-443.71 -1748.4c-17.58,-77.09 -4.4,-194.27 48.33,-246.69l-1006.06 0c61.51,64.76 65.91,169.6 48.34,246.69l-452.51 1766.9c-17.58,64.76 -74.69,172.68 -158.15,225.1l707.31 0c-79.08,-58.59 -114.23,-141.84 -92.26,-222.01l96.64 -413.21 522.8 0 92.27 394.7c21.95,86.34 0,188.1 -109.84,240.52l926.96 0zm1366.29 -2238.69c92.26,67.84 144.96,138.76 144.96,243.6l0 999.09 -162.54 -385.45 -426.13 -857.24 -790.79 0c87.86,52.42 144.97,138.76 144.97,243.6l0 1754.57c0,83.26 -21.95,157.27 -144.97,240.52l790.79 0c-101.05,-67.84 -149.39,-138.76 -149.39,-243.6l0 -1122.43c219.67,456.37 439.34,912.74 663.38,1366.03l606.27 0c-57.11,-111.01 -65.91,-246.68 -65.91,-370.03l0 -1625.06c0,-86.34 26.36,-157.26 149.37,-243.6l-760.01 0zm2077.97 931.25c96.64,61.67 144.97,135.67 144.97,206.6l0 505.71c0,299.1 -127.4,348.45 -285.55,345.36 -228.44,-6.16 -285.56,-400.87 -285.56,-851.07 0,-511.88 74.68,-869.58 395.4,-897.33 254.79,-21.58 417.35,74.01 615.04,490.29l0 -755.48c-232.84,80.18 -347.07,-12.34 -729.28,-12.34 -812.74,0 -909.39,678.4 -909.39,1190.27 13.18,558.14 144.98,1125.52 834.71,1125.52 505.22,0 518.4,-157.26 913.79,-15.42l0 -1122.43c0,-95.59 35.13,-157.26 123.01,-209.68l-817.14 0z"/>
   <g style="clip-path:url(#id0)">
    <g>
    </g>
   </g>
   <path id="1" class="fil1" d="M4687.86 1989.7c0,252.85 -101.05,434.78 -461.28,428.62l0 -903.5c408.56,12.33 461.28,234.36 461.28,474.88zm-101.05 -1054.6c0,212.77 -61.5,339.2 -360.23,339.2l0 -616.72c17.56,0 43.93,0 61.5,0 224.05,0 294.34,83.26 298.73,277.52zm729.28 1023.76c0,-228.18 -149.37,-521.12 -540.37,-576.63 329.5,-64.76 404.18,-302.19 404.18,-465.62 0,-376.2 -246.02,-514.97 -1010.44,-499.55l-672.16 0c92.27,64.76 131.79,151.1 131.79,243.6l0 1754.57c0,74 -21.95,169.6 -131.79,240.52l641.4 0c680.96,18.5 1177.39,-77.09 1177.39,-696.89zm1098.3 696.89c-109.83,-83.25 -131.8,-172.68 -131.8,-240.52l0 -1754.57c0,-92.5 43.94,-175.76 131.8,-243.6l-878.63 0c92.25,67.84 136.18,151.1 136.18,243.6l0 1754.57c0,55.51 -26.36,160.35 -136.18,240.52l878.63 0zm1454.15 -2238.69c92.26,67.84 144.97,138.76 144.97,243.6l0 999.09 -162.54 -385.45 -426.13 -857.24 -790.79 0c87.86,52.42 144.97,138.76 144.97,243.6l0 1754.57c0,83.26 -21.95,157.27 -144.97,240.52l790.79 0c-101.05,-67.84 -149.38,-138.76 -149.38,-243.6l0 -1122.43c219.66,456.37 439.32,912.74 663.37,1366.03l606.27 0c-57.11,-111.01 -65.91,-246.68 -65.91,-370.03l0 -1625.06c0,-86.34 26.36,-157.26 149.37,-243.6l-760.02 0zm2174.62 255.94c153.77,18.5 391,74 575.52,333.02l0 -588.96 -1748.5 0 0 588.96c184.51,-259.02 421.75,-314.52 575.51,-333.02l0 1742.23c0,67.84 -21.96,157.27 -131.79,240.52l865.47 0c-118.63,-86.34 -136.21,-169.59 -136.21,-240.52l0 -1742.23zm1269.65 1094.68l210.86 -980.59 202.09 980.59 -412.95 0zm1375.06 888.07c-101.04,-52.42 -153.77,-148.01 -180.12,-243.6l-443.71 -1748.4c-17.58,-77.09 -4.4,-194.27 48.33,-246.69l-1006.06 0c61.51,64.76 65.91,169.6 48.34,246.69l-452.51 1766.9c-17.58,64.76 -74.69,172.68 -158.15,225.1l707.31 0c-79.08,-58.59 -114.23,-141.84 -92.26,-222.01l96.64 -413.21 522.8 0 92.27 394.7c21.95,86.34 0,188.1 -109.84,240.52l926.96 0zm1366.29 -2238.69c92.26,67.84 144.96,138.76 144.96,243.6l0 999.09 -162.54 -385.45 -426.13 -857.24 -790.79 0c87.86,52.42 144.97,138.76 144.97,243.6l0 1754.57c0,83.26 -21.95,157.27 -144.97,240.52l790.79 0c-101.05,-67.84 -149.39,-138.76 -149.39,-243.6l0 -1122.43c219.67,456.37 439.34,912.74 663.38,1366.03l606.27 0c-57.11,-111.01 -65.91,-246.68 -65.91,-370.03l0 -1625.06c0,-86.34 26.36,-157.26 149.37,-243.6l-760.01 0zm2077.97 931.25c96.64,61.67 144.97,135.67 144.97,206.6l0 505.71c0,299.1 -127.4,348.45 -285.55,345.36 -228.44,-6.16 -285.56,-400.87 -285.56,-851.07 0,-511.88 74.68,-869.58 395.4,-897.33 254.79,-21.58 417.35,74.01 615.04,490.29l0 -755.48c-232.84,80.18 -347.07,-12.34 -729.28,-12.34 -812.74,0 -909.39,678.4 -909.39,1190.27 13.18,558.14 144.98,1125.52 834.71,1125.52 505.22,0 518.4,-157.26 913.79,-15.42l0 -1122.43c0,-95.59 35.13,-157.26 123.01,-209.68l-817.14 0z"/>
   <g style="clip-path:url(#id1)">
    <path id="2" class="fil2 str0" d="M3497.3 380.05l13451.97 2315.79m0 -2315.79l-13451.97 2315.79"/>
   </g>
   <path class="fil3" d="M1390.82 3047.06l0 -1550.38 329 189.94 0 790.6 631.21 -364.43 0 -141.5 -960.21 -554.38 0 -1388.07 1289.21 744.32 1.51 929.28 -330.51 -190.81 0 -548.53 -631.21 -364.43 0 628.29 960.21 554.38 0 521.4 -1289.21 744.32zm-69.08 -1787.36l0 -1231.91 -1291.02 745.37 0 1529.58 1291.02 745.36 0 -1591.3 -170.69 -98.55 170.69 -98.55zm-329 -189.94l0 -472.13 -633.02 365.47 0 472.13 633.02 -365.47zm0 1408.51l0 -1028.62 -633.02 365.48 0 297.66 633.02 365.48z"/>
  </g>
 </g>
</svg>
