<?xml version="1.0" encoding="UTF-8"?>
<!DOCTYPE svg PUBLIC "-//W3C//DTD SVG 1.1//EN" "http://www.w3.org/Graphics/SVG/1.1/DTD/svg11.dtd">
<!-- Creator: CorelDRAW 2020 (64-Bit) -->
<svg xmlns="http://www.w3.org/2000/svg" xml:space="preserve" width="26.508mm" height="30.759mm" version="1.1" style="shape-rendering:geometricPrecision; text-rendering:geometricPrecision; image-rendering:optimizeQuality; fill-rule:evenodd; clip-rule:evenodd"
viewBox="0 0 2650.8 3075.9"
 xmlns:xlink="http://www.w3.org/1999/xlink"
 xmlns:xodm="http://www.corel.com/coreldraw/odm/2003">
 <defs>
  <style type="text/css">
   <![CDATA[
    .fil0 {fill:#474443}
   ]]>
  </style>
 </defs>
 <g id="Layer_x0020_1">
  <metadata id="CorelCorpID_0Corel-Layer"/>
  <path class="fil0" d="M1359.28 3011.62l0 -1513.97 321.27 185.48 0 772.04 616.39 -355.88 0 -138.18 -937.66 -541.36 0 -1355.48 1258.93 726.84 1.48 907.47 -322.75 -186.33 0 -535.65 -616.39 -355.87 0 613.54 937.66 541.36 0 509.15 -1258.93 726.84zm-67.46 -1745.38l0 -1202.99 -1260.71 727.86 0 1493.67 1260.71 727.86 0 -1553.94 -166.68 -96.23 166.68 -96.23zm-321.27 -185.49l0 -461.04 -618.17 356.89 0 461.04 618.17 -356.89zm0 1375.44l0 -1004.47 -618.17 356.9 0 290.67 618.17 356.9z"/>
 </g>
</svg>
